TITLE ""
FILE "Disc3Track30.mp3" MP3
  TRACK 01 AUDIO
    TITLE "Disc3Track30_01"
    INDEX 01 00:00:00
  TRACK 02 AUDIO
    TITLE "Disc3Track30_02"
    INDEX 01 00:01:18
  TRACK 03 AUDIO
    TITLE "Disc3Track30_03"
    INDEX 01 00:03:46
  TRACK 04 AUDIO
    TITLE "Disc3Track30_04"
    INDEX 01 00:04:75
  TRACK 05 AUDIO
    TITLE "Disc3Track30_05"
    INDEX 01 00:09:46
  TRACK 06 AUDIO
    TITLE "Disc3Track30_06"
    INDEX 01 00:10:03
  TRACK 07 AUDIO
    TITLE "Disc3Track30_07"
    INDEX 01 00:11:16
  TRACK 08 AUDIO
    TITLE "Disc3Track30_08"
    INDEX 01 00:13:46
  TRACK 09 AUDIO
    TITLE "Disc3Track30_09"
    INDEX 01 00:14:59
  TRACK 10 AUDIO
    TITLE "Disc3Track30_10"
    INDEX 01 00:19:45
  TRACK 11 AUDIO
    TITLE "Disc3Track30_11"
    INDEX 01 00:20:01
  TRACK 12 AUDIO
    TITLE "Disc3Track30_12"
    INDEX 01 00:21:16
  TRACK 13 AUDIO
    TITLE "Disc3Track30_13"
    INDEX 01 00:22:49
  TRACK 14 AUDIO
    TITLE "Disc3Track30_14"
    INDEX 01 00:23:62
  TRACK 15 AUDIO
    TITLE "Disc3Track30_15"
    INDEX 01 00:27:40
  TRACK 16 AUDIO
    TITLE "Disc3Track30_16"
    INDEX 01 00:27:74
  TRACK 17 AUDIO
    TITLE "Disc3Track30_17"
    INDEX 01 00:29:26
  TRACK 18 AUDIO
    TITLE "Disc3Track30_18"
    INDEX 01 00:31:66
  TRACK 19 AUDIO
    TITLE "Disc3Track30_19"
    INDEX 01 00:33:16
  TRACK 20 AUDIO
    TITLE "Disc3Track30_20"
    INDEX 01 00:37:19
  TRACK 21 AUDIO
    TITLE "Disc3Track30_21"
    INDEX 01 00:37:53
  TRACK 22 AUDIO
    TITLE "Disc3Track30_22"
    INDEX 01 00:39:06
  TRACK 23 AUDIO
    TITLE "Disc3Track30_23"
    INDEX 01 00:40:06
  TRACK 24 AUDIO
    TITLE "Disc3Track30_24"
    INDEX 01 00:41:37
  TRACK 25 AUDIO
    TITLE "Disc3Track30_25"
    INDEX 01 00:42:01
  TRACK 26 AUDIO
    TITLE "Disc3Track30_26"
    INDEX 01 00:43:16
  TRACK 27 AUDIO
    TITLE "Disc3Track30_27"
    INDEX 01 00:44:17
  TRACK 28 AUDIO
    TITLE "Disc3Track30_28"
    INDEX 01 00:45:31
  TRACK 29 AUDIO
    TITLE "Disc3Track30_29"
    INDEX 01 00:51:21
  TRACK 30 AUDIO
    TITLE "Disc3Track30_30"
    INDEX 01 00:51:53
  TRACK 31 AUDIO
    TITLE "Disc3Track30_31"
    INDEX 01 00:53:10
  TRACK 32 AUDIO
    TITLE "Disc3Track30_32"
    INDEX 01 00:54:33
  TRACK 33 AUDIO
    TITLE "Disc3Track30_33"
    INDEX 01 00:55:62
  TRACK 34 AUDIO
    TITLE "Disc3Track30_34"
    INDEX 01 00:58:08
  TRACK 35 AUDIO
    TITLE "Disc3Track30_35"
    INDEX 01 00:58:39
  TRACK 36 AUDIO
    TITLE "Disc3Track30_36"
    INDEX 01 00:59:60
  TRACK 37 AUDIO
    TITLE "Disc3Track30_37"
    INDEX 01 01:00:65
  TRACK 38 AUDIO
    TITLE "Disc3Track30_38"
    INDEX 01 01:02:11
  TRACK 39 AUDIO
    TITLE "Disc3Track30_39"
    INDEX 01 01:07:01
  TRACK 40 AUDIO
    TITLE "Disc3Track30_40"
    INDEX 01 01:07:30
  TRACK 41 AUDIO
    TITLE "Disc3Track30_41"
    INDEX 01 01:08:59
  TRACK 42 AUDIO
    TITLE "Disc3Track30_42"
    INDEX 01 01:10:11
  TRACK 43 AUDIO
    TITLE "Disc3Track30_43"
    INDEX 01 01:11:38
  TRACK 44 AUDIO
    TITLE "Disc3Track30_44"
    INDEX 01 01:13:41
